<svg xmlns="http://www.w3.org/2000/svg">
    <symbol id="menu" viewBox="0 0 32 32"><path d="M5 8h22M5 16h22M27 24H5" stroke-width="3" stroke-linecap="round"/></symbol>
    <symbol id="cross" viewBox="0 0 32 32"><path d="M7 24L25 8M25 24L7 8" stroke-width="3" stroke-linecap="round"/></symbol>
    <symbol id="bg" viewBox="0 0 800 595"><path fill="#d8d8d8" d="M.2 428.6c-3.3 55.5 43.1 130.3 103.9 141 84.7 14.9 116.2-24.5 199-51 66.5-21.3 112.6-11.3 172.9 29.5 60.3 40.8 150.1 82.7 258.2-20.4 73.6-70.3 91.2-213.8 23-313.6-56.8-83.2-161.5-168.7-293.4-193.7-131.9-24.9-247.5-24.9-297.5 8-40.9 27-21.9 64.5-9.1 96.4 17.1 42.6 19.6 76.4-50.8 138.3C26 333.8 4.2 360.3.2 428.6" opacity=".5"/><path fill="#b4ddf0" d="M471 276.8c-18.4 37.4-41.5 139.5-47.8 145.1-6.3 5.6-42.7 27.3-49 37.8-6.3 10.5-3.5 7-.7 7.7 2.8.7 160.9 1.4 160.9 1.4s-18.2-108.4-20.3-109.1c-2.1-.8-43.1-82.9-43.1-82.9z"/><path fill="#a6cddd" d="M444.8 468.3c29 .2 59.7.4 76.5.4l-23.1-138.1c-12.3-23.9-27.3-53.8-27.3-53.8-2.3 4.7-4.7 10.5-7.1 16.9-2.4 103.7 12.5 132.8 1.3 151.3-8.7 14.4-16.7 20.9-20.3 23.3z"/><path fill="#415b96" d="M773 475.7H13.9c-3.2 0-5.9-2.6-5.9-5.9 0-3.2 2.6-5.9 5.9-5.9H773c3.2 0 5.9 2.6 5.9 5.9 0 3.3-2.6 5.9-5.9 5.9z"/><path fill="#b4ddf0" d="M567.9 231.7c26.3 24.2 84.7 47.2 84.7 47.2s8.9 82.1 2.8 128.5c-6.1 46.5-2.7 55.9-2.7 55.9H532.2s-16.2-22.4-45.8-92.2c-18.9-44.4-15.5-94.3-15.5-94.3l73.4-33 23.6-12.1z"/><path fill="#a6cddd" d="M532.2 463.3h120.5s-3.4-9.4 2.7-55.9c5-38.3-.2-100.6-2.1-121.5l-11-4.7c-27.5 7.9-43.4 49-48 89.1-3.1 26.8-47.6 53.3-76.7 67.8 9.6 18.2 14.6 25.2 14.6 25.2z"/><path fill="#415b96" d="M502.7 147.5c-14.5 32.4 2.9 62.3 2.4 61.1-.5-1.3 22-54.6 22-54.6l-24.4-6.5z"/><path fill="#da975d" d="M557.7 171.4l18.4 67.3c.5 1.9.1 3.9-1.2 5.5-4.3 5.3-10.5 16.3-22.9 19.8-2.4.7-5.4.9-7.8.9-2.5 0-4.7-1.8-5.2-4.3l-12.3-63.9 31-25.3z"/><path fill="#cc8346" d="M554.2 177l-6.7 2.8-20.7 16.9 11.1 56.6c18.8-11.7 21.6-19.6 16.3-76.3z"/><path fill="#da975d" d="M557.1 201.2c-4.1 22.2-20.7 37.1-37 33.5-16.4-3.7-24.2-18-22.3-46.8 1.5-22.6 12.6-47.1 29-43.4 16.3 3.7 34.3 34.5 30.3 56.7z"/><path fill="#b4ddf0" d="M652.6 278.9c24.4 5.5 28.9 55 36.8 107.3.9 6 5.6 56.9 5.6 56.9s.5 9.3-8.9 14c-8 4-11.2 7-57.4 7.5-44.3.4-101.5-1.4-101.5-1.4s-.5-16.5 4-24.6c6.8-12.1 77-29.5 83.5-30.5.9-13.1-6.4-60.3 3.7-92.3 7-22 14.5-33.6 23.9-36.6 3.4-1 6.7-1.1 10.3-.3z"/><path fill="#a6cddd" d="M552.4 464.1c21.9.3 51.9.6 76.4.4 46.2-.5 49.4-3.5 57.4-7.5 9.3-4.7 9.8-12.6 9.8-12.6s-4.7-54.1-5.6-60.2c-5.1-35-10.7-75-23.6-94.3 12.1 35.5 14.1 65.5 14.3 78.3.1 6.5-.5 15.4-2.4 21.6-2.1 6.9-7.5 11.2-15.9 8.9-16.8-4.7-37.8 5.1-37.8 5.1s15.9-5.6 30.8-.5 45.7 39.2 12.1 51.8c-10.2 4-71.7 7.1-115.5 9z"/><path fill="#a6cddd" d="M535.1 440.1s6.2-10.6 19-10.6c12.7 0 11.8 20.8 9.9 27.7-1.9 6.8-9.3 7.2-9.3 7.2l-27.4-1.2 7.8-23.1z"/><path fill="#819fda" d="M506.8 469.1H335.5c-2.9 0-5.3-2.4-5.3-5.3v-.2c0-2.9 2.4-5.3 5.3-5.3h171.3c2.9 0 5.3 2.4 5.3 5.3v.2c0 2.9-2.4 5.3-5.3 5.3z"/><path fill="#da975d" d="M531.7 441.4c-26.7-9.6-33.8-6-39.8-7.8-14.9-4.4-18.7-.6-28.3 25.8-1.9 5.3 3.7 5.6 9.3 5.6s12.4-10.9 14.6-12.1 8.1-1.9 8.1-1.9-1.9 0-4.7 5.6c-2.8 5.6-6.2 7.8-1.9 7.8 4.4 0 5-7.2 13.1-5.6 8.1 1.6 5 5.6 25.2 5.3 20.2-.3 35.5 0 35.1-12.1-.3-11.5 1-17.3-9.9-19.3-8.4-1.6-20.8 8.7-20.8 8.7z"/><path fill="#976b4b" d="M532 441.4c17.9-2 12.6 20.2 10.8 22.1-1.9 1.9 10 .7 10 .7s5.6-8.9.9-19.2c-4.7-10.3-14-10.7-14-10.7l-7.9 4.4.2 2.7z"/><path fill="#415b96" d="M550.7 439.4c-.2 2.8-4.9 4.6-10.5 4.2-5.6-.5-9.9-3.1-9.6-5.8.2-2.8 4.9-4.6 10.5-4.2 5.5.5 9.8 3.1 9.6 5.8z"/><path fill="#4f6ba6" d="M549.3 438.1c-.2 2.5-4.4 4.1-9.4 3.7-5-.4-8.8-2.8-8.6-5.2.2-2.5 4.4-4.1 9.4-3.7 4.9.4 8.8 2.7 8.6 5.2z"/><path fill="#e5ccb3" d="M546.2 436.9c-.1 1.8-3.2 3-6.7 2.7-3.6-.3-6.3-2-6.2-3.8.1-1.8 3.2-3 6.7-2.7 3.5.4 6.3 2 6.2 3.8z"/><path fill="#819fda" d="M328.6 435H154.8c-9.1 0-17-6.6-18.6-15.7l-22.7-125.1c-2.1-11.8 6.8-22.7 18.6-22.7h173.8c9.1 0 17 6.6 18.6 15.7l22.7 125.1c2.1 11.8-6.8 22.7-18.6 22.7z"/><path fill="#b1ccfc" d="M336.7 412.8l-23.1-122.5c-1.7-8.9-9.7-15.4-19-15.4H117.9c-3.7 4.3-5.6 10.2-4.4 16.3L137 418.9c1.7 9.3 9.8 16.1 19.3 16.1h161.4c12 0 21.2-10.7 19-22.2z"/><path fill="#819fda" d="M294.8 451.7h-33c-5.9 0-10.7-5.2-10.7-11.7v-60.3c0-10.3-7.6-18.6-17-18.6h-17.2c-9.4 0-17 8.3-17 18.6v67.5c0 11.5 8.6 20.9 19.1 20.8l90-.6c.1-8.6-6.3-15.7-14.2-15.7z"/><path fill="#b1ccfc" d="M201.3 381.1v66.5c0 10.8 8.4 19.7 19 20.4l87.9-.5c0-1.4-6.9-4.1-15.5-4.1H257c-6.4 0-11.5-5.2-11.5-11.5v-70.8c0-10.1-8.2-18.3-18.3-18.3h-7.5c-10.2-.1-18.4 8.1-18.4 18.3z"/><path fill="#da975d" d="M385.2 444c13.3-7.4 29.5-4.9 35.4 2.5 5.9 7.4 6.9 12.3-6.4 12.3s-39.8 1-44.3.5c-4.4-.5 15.3-15.3 15.3-15.3z"/><path fill="#da975d" d="M404.9 439.6c14.3-3.4 24 4.9 35.9 12.8 10.3 6.9 12.4 13.6 1 7.9-16.7-8.4-26.6-9.3-26.6-9.3l-10.3-11.4zM391.9 444c-7.2 0-13.5-2.3-18.6-1.9-5.1.4-21.2 16.9-18.6 18.2l.6.3c3.8 1.4 8.1-.2 10.3-3.6 2.3-3.7 6-7.9 10.3-6.4 7.2 2.5 14.8 2.3 14.8 2.3l1.2-8.9z"/><path fill="#e3a672" d="M387.7 461.8c-7.4-3 4.4-27.5 8.4-27.5 3.9 0 18.7 11.8 18.7 11.8s-3.5 2-15.2-2c-3-1-5.4 15.7-8.9 17.7-3.5 1.9-3 0-3 0z"/><path fill="#415b96" d="M497.8 200.8c-.7 27.1 8.5 31.7 15 35.3 6.5 3.7 34.2-2.4 38.3-9.1 10.4-17.1 1.7-33.1 4-32.9 2.3.2 4.5 6.9 10.6 15.6.6.8 4.5 6.2 4.7 4.4 2.8-24.2 15.5-31.8 12.4-56.3-2.2-18.1-13.7-16.6-13.7-16.6s-7.4-15.1-30.4-13.4c-15.4 1.2-29.2 7.2-45.1 11.3-15.9 4.1 18.8 40.2 39.5 27 20.6-13.2 10.5 15.9 13.7 18.1 3.3 2.3 1.6.3 3.1 15.2 1.5 14.9-17.4 24.6-22.8 25.8-17.3 4.1-20.2 1.2-24-5.3-3.4-5.7-5.3-19.1-5.3-19.1z"/><path fill="#da975d" d="M569.3 192.5c-2 6.8-6.8 11.2-10.8 9.8-4-1.4-4.1-6.9-3.6-14.9.4-7.2 6.8-11.2 10.8-9.8 4 1.4 5.6 8 3.6 14.9z"/><g><path fill="#c2dffd" d="M276.1 153.8H131.8c-2.5 0-4.6-2.1-4.6-4.6V89.1c0-2.5 2.1-4.6 4.6-4.6H276c2.5 0 4.6 2.1 4.6 4.6v60.1c.1 2.6-2 4.6-4.5 4.6z"/><path fill="#fff" d="M272.7 150.6H135.2c-2.1 0-3.7-1.7-3.7-3.7v-40.4c0-2.1 1.7-3.7 3.7-3.7h137.6c2.1 0 3.7 1.7 3.7 3.7v40.4c0 2-1.7 3.7-3.8 3.7z"/><g fill="#fff"><path d="M137.5 95h-1.9c-1.1 0-2.1-.9-2.1-2.1v-1.3c0-1.1.9-2.1 2.1-2.1h1.9c1.1 0 2.1.9 2.1 2.1V93c0 1.1-.9 2-2.1 2zM148.4 95h-1.9c-1.1 0-2.1-.9-2.1-2.1v-1.3c0-1.1.9-2.1 2.1-2.1h1.9c1.1 0 2.1.9 2.1 2.1V93c0 1.1-.9 2-2.1 2zM159.4 95h-1.9c-1.1 0-2.1-.9-2.1-2.1v-1.3c0-1.1.9-2.1 2.1-2.1h1.9c1.1 0 2.1.9 2.1 2.1V93c-.1 1.1-1 2-2.1 2z"/></g><path fill="#c2dffd" d="M270.6 113.2h-76.7c-1.3 0-2.3-1-2.3-2.3 0-1.3 1-2.3 2.3-2.3h76.7c1.3 0 2.3 1 2.3 2.3 0 1.3-1.1 2.3-2.3 2.3zM212.9 148.6h-76.7c-1.3 0-2.3-1-2.3-2.3 0-1.3 1-2.3 2.3-2.3h76.7c1.3 0 2.3 1 2.3 2.3 0 1.3-1.1 2.3-2.3 2.3zM226.5 148.6h-7c-.7 0-1.2-.6-1.2-1.2v-2.1c0-.7.6-1.2 1.2-1.2h7c.7 0 1.2.6 1.2 1.2v2.1c.1.7-.5 1.2-1.2 1.2zM238.5 148.6h-7c-.7 0-1.2-.6-1.2-1.2v-2.1c0-.7.6-1.2 1.2-1.2h7c.7 0 1.2.6 1.2 1.2v2.1c.1.7-.5 1.2-1.2 1.2zM271.3 123.2h-127c-.9 0-1.6-.7-1.6-1.6 0-.9.7-1.6 1.6-1.6h127c.9 0 1.6.7 1.6 1.6 0 .9-.7 1.6-1.6 1.6zM271.3 129.9h-127c-.9 0-1.6-.7-1.6-1.6 0-.9.7-1.6 1.6-1.6h127c.9 0 1.6.7 1.6 1.6 0 .9-.7 1.6-1.6 1.6z"/><g><path fill="#819fda" d="M310.7 202.5H166.5c-2.5 0-4.6-2.1-4.6-4.6v-60.1c0-2.5 2.1-4.6 4.6-4.6h144.2c2.5 0 4.6 2.1 4.6 4.6v60.1c0 2.6-2 4.6-4.6 4.6z"/><path fill="#fff" d="M307.4 199.3H169.8c-2.1 0-3.7-1.7-3.7-3.7v-40.4c0-2.1 1.7-3.7 3.7-3.7h137.6c2.1 0 3.7 1.7 3.7 3.7v40.4c0 2-1.6 3.7-3.7 3.7z"/><g fill="#fff"><path d="M172.2 143.7h-1.9c-1.1 0-2.1-.9-2.1-2.1v-1.3c0-1.1.9-2.1 2.1-2.1h1.9c1.1 0 2.1.9 2.1 2.1v1.3c-.1 1.2-1 2.1-2.1 2.1zM183.1 143.7h-1.9c-1.1 0-2.1-.9-2.1-2.1v-1.3c0-1.1.9-2.1 2.1-2.1h1.9c1.1 0 2.1.9 2.1 2.1v1.3c0 1.2-.9 2.1-2.1 2.1zM194 143.7h-1.9c-1.1 0-2.1-.9-2.1-2.1v-1.3c0-1.1.9-2.1 2.1-2.1h1.9c1.1 0 2.1.9 2.1 2.1v1.3c0 1.2-.9 2.1-2.1 2.1z"/></g><path fill="#819fda" d="M305.2 161.9h-76.7c-1.3 0-2.3-1-2.3-2.3 0-1.3 1-2.3 2.3-2.3h76.7c1.3 0 2.3 1 2.3 2.3 0 1.3-1 2.3-2.3 2.3zM247.5 197.3h-76.7c-1.3 0-2.3-1-2.3-2.3 0-1.3 1-2.3 2.3-2.3h76.7c1.3 0 2.3 1 2.3 2.3 0 1.3-1 2.3-2.3 2.3zM261.2 197.3h-7c-.7 0-1.2-.6-1.2-1.2V194c0-.7.6-1.2 1.2-1.2h7c.7 0 1.2.6 1.2 1.2v2.1c.1.6-.5 1.2-1.2 1.2zM273.2 197.3h-7c-.7 0-1.2-.6-1.2-1.2V194c0-.7.6-1.2 1.2-1.2h7c.7 0 1.2.6 1.2 1.2v2.1c0 .6-.5 1.2-1.2 1.2zM306 171.9H179c-.9 0-1.6-.7-1.6-1.6 0-.9.7-1.6 1.6-1.6h127c.9 0 1.6.7 1.6 1.6-.1.9-.8 1.6-1.6 1.6zM306 178.6H179c-.9 0-1.6-.7-1.6-1.6 0-.9.7-1.6 1.6-1.6h127c.9 0 1.6.7 1.6 1.6-.1.9-.8 1.6-1.6 1.6z"/></g></g><g><path fill="#acd29a" d="M384.8 173.8c0 11-8.9 19.9-19.9 19.9-11 0-19.9-8.9-19.9-19.9 0-11 8.9-19.9 19.9-19.9 11 0 19.9 8.9 19.9 19.9z"/><path fill="#fff" d="M363 181.1c-.1 0-.1 0 0 0-.5 0-.9-.2-1.1-.5l-5.4-6.1c-.6-.6-.5-1.6.1-2.1.6-.6 1.6-.5 2.1.1l4.4 4.9 10.4-10.2c.6-.6 1.6-.6 2.1 0 .6.6.6 1.6 0 2.1L364 180.7c-.3.3-.6.4-1 .4z"/></g><g><path fill="#819fda" d="M484.6 122.9H364.9c-5.1 0-9.3-4.2-9.3-9.3V75.2c0-5.1 4.2-9.3 9.3-9.3h119.7c5.1 0 9.3 4.2 9.3 9.3v38.4c.1 5.1-4.1 9.3-9.3 9.3z"/><path fill="#819fda" d="M372.3 114.3l-7.3 19.2 43.6-24c-.1 0-35.6 4.8-36.3 4.8z"/><path fill="#fff" d="M478.9 117.2H370.6c-4.4 0-7.9-3.6-7.9-7.9V79.4c0-4.4 3.6-7.9 7.9-7.9h108.3c4.4 0 7.9 3.6 7.9 7.9v29.9c0 4.4-3.6 7.9-7.9 7.9z"/><path fill="#819fda" d="M430.3 82.8h-56.1c-1.4 0-2.5-1.1-2.5-2.5s1.1-2.5 2.5-2.5h56.1c1.4 0 2.5 1.1 2.5 2.5s-1.2 2.5-2.5 2.5zM477.1 92.2h-104c-.7 0-1.4-.6-1.4-1.4 0-.7.6-1.4 1.4-1.4h104c.7 0 1.4.6 1.4 1.4 0 .8-.6 1.4-1.4 1.4zM477.1 97.6h-104c-.7 0-1.4-.6-1.4-1.4 0-.7.6-1.4 1.4-1.4h104c.7 0 1.4.6 1.4 1.4 0 .7-.6 1.4-1.4 1.4z"/><g fill="#819fda"><path d="M454.9 115.3H453c-1.1 0-2.1-.9-2.1-2.1v-1.3c0-1.1.9-2.1 2.1-2.1h1.9c1.1 0 2.1.9 2.1 2.1v1.3c-.1 1.1-1 2.1-2.1 2.1zM465.8 115.3h-1.9c-1.1 0-2.1-.9-2.1-2.1v-1.3c0-1.1.9-2.1 2.1-2.1h1.9c1.1 0 2.1.9 2.1 2.1v1.3c0 1.1-1 2.1-2.1 2.1zM476.7 115.3h-1.9c-1.1 0-2.1-.9-2.1-2.1v-1.3c0-1.1.9-2.1 2.1-2.1h1.9c1.1 0 2.1.9 2.1 2.1v1.3c0 1.1-.9 2.1-2.1 2.1z"/></g></g></symbol>
</svg>




